<svg xmlns="http://www.w3.org/2000/svg" viewBox="0 0 977 1428.4"><path d="M488.5 1294.6l-311 133.8V864.9C64.6 771.5 0 634.5 0 488.5 0 219.1 219.1 0 488.5 0c147.8 0 285.6 65.7 379 180.6l38.1-45.1c11-13.3 30.7-15.2 44-4.2s15.2 30.7 4.2 44l-48.2 59.1c46.7 76.5 71.5 164.4 71.4 254 0 146-64.6 283-177.5 376.4v563.5l-311-133.7z" fill="#fff"/><path d="M488.5 977c-105.1.1-207.3-33.8-291.5-96.8V1396l291.5-124.3L780 1396.1V880.2c-84.2 63-186.4 96.9-291.5 96.8z" fill="#ffc60b"/><path d="M230.1 408.4c-21.5 0-36.8-15.2-36.8-42 0-28.5 16.9-43.1 37.5-43.1 10.5 0 18.2 2.9 24.3 7l-2.7 18.3c-6.6-5.3-12.9-7.7-20.4-7.7-11.1 0-19.1 8.6-19.1 24.9 0 17 8.7 25.1 20.4 25.1 6.7 0 12.8-1.9 20.1-7.8l2.6 17.3c-8 5.9-16.1 8.1-25.9 8m69.7-68.3c-11.4 0-17.5 10.7-17.5 26 0 14.9 6.3 25.9 17.5 25.9 11.9 0 18-10.7 18-25.9s-6.5-26-18-26m0 68.5c-21.1 0-36.4-15.9-36.4-42.5s15.5-42.8 36.5-42.8 36.7 16.1 36.7 42.7-15.6 42.6-36.8 42.6m141.9-1.7v-53.6c0-7.1-2.4-12-9.5-12-6 0-11.6 4.1-17.2 10.2v55.4h-19.3v-53.6c0-7.1-2.6-12-9.7-12-5.9 0-11.6 4.1-17.2 10.2v55.4h-19.3V325h16.4l1.8 11.5c7.3-7.3 15.1-13.2 25.6-13.2 11.1 0 17 5.3 20 13.2 6.9-7.3 15.4-13.2 25.9-13.2 14.6 0 21.9 9.4 21.9 24.6v59h-19.4zm129.8 0v-53.6c0-7.1-2.4-12-9.5-12-6 0-11.6 4.1-17.2 10.2v55.4h-19.3v-53.6c0-7.1-2.5-12-9.6-12-6 0-11.6 4.1-17.2 10.2v55.4h-19.3V325h16.4l1.8 11.5c7.2-7.3 15.1-13.2 25.6-13.2 11.1 0 17 5.3 20 13.2 6.9-7.3 15.5-13.2 25.9-13.2 14.6 0 21.9 9.4 21.9 24.6v59h-19.5zm70-66.8c-11.4 0-17.5 10.7-17.5 26 .1 14.9 6.3 25.9 17.5 25.9 11.9 0 18-10.7 18-25.9s-6.4-26-18-26m0 68.5c-21.1 0-36.4-15.9-36.4-42.5s15.4-42.8 36.5-42.8c21.2 0 36.7 16.1 36.7 42.8s-15.6 42.5-36.8 42.5m96.1-1.7v-53.6c0-7.1-2.9-12-10-12-6.1 0-12 4.1-17.7 10.3v55.3h-19.3V325H707l1.8 11.5c7.2-7.3 15.5-13.2 25.9-13.2 14.5 0 22.2 9.4 22.2 24.6v59h-19.3zM226.1 531c-10.6-.2-21-2.9-30.2-8l2.6-17c8.4 5.8 18.7 9.7 28.3 9.7 8.4 0 12.9-3.2 12.9-8.5 0-5.8-3.4-8.1-15.8-11.4-18.8-5.1-26.7-10.9-26.7-25.8 0-14.1 10.6-24 28.6-24 9.4-.1 18.7 1.8 27.2 5.7l-2.6 17c-7.7-4.6-16.9-7.5-24.6-7.5-7.3 0-10.8 2.9-10.8 7.5 0 4.4 2.9 6.8 14.4 10 20.2 5.4 28 11.2 28 26.6 0 16.2-10.9 25.7-31.3 25.7m74.6-71c-7.7 0-14 6.4-15.5 19.8h30.9c-1.2-12.7-6.1-19.8-15.4-19.8m34.1 32.5H285c.9 16 9 22.9 20.9 22.9 10 0 18.2-3.9 26.7-10.2l2.2 15.9c-9 6.6-19.9 10.1-31 10-21.7 0-38-13.1-38-42.6 0-26.6 15.1-42.8 35.4-42.8 23.4 0 33.8 18.5 33.8 41.7 0 1.9-.2 3.9-.2 5.1m61.7 37v-53.6c0-7.1-2.9-12.1-9.9-12.1-6.1 0-12.1 4.1-17.7 10.4v55.3h-19.3v-81.9H366l1.8 11.5c7.2-7.3 15.5-13.2 25.9-13.2 14.5 0 22.2 9.3 22.2 24.6v59h-19.4zm61.8 1.5c-10.6-.2-21-2.9-30.2-8l2.6-17c8.4 5.8 18.7 9.7 28.3 9.7 8.4 0 12.9-3.2 12.9-8.5 0-5.8-3.4-8.1-15.7-11.4-18.9-5.1-26.7-10.9-26.7-25.8 0-14.1 10.6-24 28.6-24 9.4-.1 18.7 1.8 27.2 5.7l-2.6 17c-7.7-4.6-16.9-7.5-24.6-7.5-7.2 0-10.8 2.9-10.8 7.5 0 4.4 2.9 6.8 14.5 10 20.1 5.4 28 11.2 28 26.6-.1 16.2-11.1 25.7-31.5 25.7m74.6-71c-7.7 0-14 6.4-15.5 19.8h30.9c-1.2-12.7-6-19.8-15.4-19.8m34 32.5h-49.8c1 16 9 22.9 20.9 22.9 10 0 18.1-3.9 26.7-10.2l2.2 15.9c-9 6.6-19.9 10.1-31 10-21.7 0-38-13.1-38-42.6 0-26.6 15.1-42.8 35.4-42.8 23.3 0 33.8 18.5 33.8 41.7.1 1.9-.1 3.9-.2 5.1M349.5 652.1V546.3l18.9-2.7v108.5h-18.9zm217.5 1.3c-15.8 0-26.5-5.8-26.5-24.1V588h-11.4v-16.3h11.3v-23.1l19.6-3v26.1h16.5L579 588h-19v38c0 6.5 3 10 10.7 10 2.1.1 4.3-.2 6.3-.7l2.5 16.8c-4.1.9-8.3 1.4-12.5 1.3zm36.6-95.2c-6.7 0-12-4.7-12-11.3 0-6.8 5.3-11.7 12-11.7 6.4-.2 11.6 4.8 11.8 11.2v.5c0 6.6-5.3 11.3-11.8 11.3zm-10.2 93.9v-80.4h20v80.4h-20zm-367.3 1.4c-10.6-.2-21-2.9-30.2-8l2.6-17c8.4 5.8 18.7 9.7 28.3 9.7 8.4 0 12.9-3.2 12.9-8.5 0-5.8-3.4-8.1-15.8-11.4-18.8-5.1-26.7-10.8-26.7-25.8 0-14.1 10.6-24 28.6-24 9.4-.1 18.7 1.8 27.2 5.7l-2.6 17c-7.7-4.6-16.9-7.5-24.6-7.5-7.3 0-10.8 2.9-10.8 7.5 0 4.4 2.9 6.8 14.4 10 20.2 5.4 28 11.2 28 26.6 0 16.3-10.9 25.8-31.3 25.7m74.6-72.1c-7.7 0-14 6.4-15.5 19.8h30.9c-1.2-12.7-6.1-19.8-15.4-19.8m34.1 33.6H285c.9 16 9 22.9 20.9 22.9 10 0 18.2-3.9 26.7-10.2l2.2 15.9c-9 6.6-19.9 10.1-31 10-21.7 0-38-13.1-38-42.6 0-26.6 15.1-42.8 35.4-42.8 23.4 0 33.8 18.5 33.8 41.7 0 1.9-.2 3.9-.2 5.1m79.7-33.6c-7.7 0-14 6.4-15.5 19.8h30.9c-1.3-12.7-6.1-19.8-15.4-19.8m34.1 33.6h-49.8c.9 16 9 22.9 20.9 22.9 10 0 18.2-3.9 26.7-10.2l2.2 15.9c-9 6.6-19.9 10.1-31 10-21.7 0-38-13.1-38-42.6 0-26.6 15.1-42.8 35.4-42.8 23.4 0 33.8 18.5 33.8 41.7-.1 1.9-.2 3.9-.2 5.1m46.6 38.7c-21.5 0-36.8-15.2-36.8-42 0-28.5 16.9-43.1 37.5-43.1 10.5 0 18.2 2.9 24.3 7l-2.7 18.3c-6.6-5.3-12.9-7.7-20.4-7.7-11.1 0-19.1 8.7-19.1 24.9 0 17 8.7 25.1 20.4 25.1 6.7 0 12.9-1.9 20.1-7.8l2.6 17.3c-7.9 5.8-16 8-25.8 8m169.3-68.5c-11.4 0-17.5 10.7-17.5 26 0 14.9 6.3 25.9 17.5 25.9 11.9 0 18-10.7 18-25.9 0-15.1-6.4-26-18-26m0 68.5c-21.1 0-36.4-15.9-36.4-42.5s15.4-42.8 36.5-42.8c21.2 0 36.7 16.1 36.7 42.8s-15.6 42.5-36.8 42.5m96.1-1.7v-53.6c0-7.1-2.9-12-10-12-6.1 0-12 4.1-17.7 10.3V652h-19.3v-81.9h16.4l1.8 11.5c7.2-7.3 15.5-13.2 25.9-13.2 14.5 0 22.2 9.3 22.2 24.6v59h-19.3zm55.2-365.4h-.1c-17.9 0-29.5-13.1-31.4-15.1l-28.9-30.9c-4.3-4.6-4.1-11.9.4-16.3 4.4-4.4 11.6-4.3 15.9.2l.1.1 29.2 30.6s6.4 6.6 15 6.5c6.9 0 14.2-4.2 21.7-12.4l83.2-101c3.8-4.9 10.9-5.8 15.9-2 4.9 3.8 5.8 10.9 2 15.9-.1.2-.3.3-.4.5l-83.8 102.7c-12.1 13.2-25.1 21.2-38.8 21.2m-535.2 887.6v-99.7h39.2v10.7H295v32.1h17.8v10.7H295v46.3l-14.3-.1zm42 0l21.4-99.7h14.2l21.4 99.7h-14.2l-5.4-24.9h-17.8l-5.3 24.9h-14.3zm21.4-35.6h14.2l-7.1-42.8-7.1 42.8zm48.2 35.6v-99.7H412l14.1 76.4 14.1-76.4H460v99.7h-14.3v-78.7l-14.2 78.7h-10.7l-14.2-78.7v78.7h-14.3zm87.1 0v-99.7h14.2v99.7h-14.2zm34.1 0v-99.7h14.2v89h24.9v10.7h-39.1zm51 0v-99.7h14.2v99.7h-14.2zm34.1 0v-99.7h39.2v10.7h-24.9v32.1h17.8v10.7h-17.8v35.6h24.9v10.7h-39.2zm78.5 1c-9 0-15.8-2.6-20.6-7.9-4.7-5.3-7.4-12.5-7.9-21.6l14.2-3.6c.7 14.3 5.5 21.4 14.2 21.4 7.1 0 10.7-3.6 10.7-10.7 0-2-.3-4-.9-5.9-.6-1.8-1.5-3.5-2.6-5-1-1.3-2.1-2.5-3.2-3.6-1-.9-2.3-2-4-3.4l-17.8-14.2c-3.3-2.6-6-6-7.8-9.8-2-4.2-3-8.8-2.9-13.5 0-7.3 2.3-13.2 6.8-17.5 4.6-4.4 10.6-6.5 18.2-6.5 8.1 0 14.5 2 19.3 5.9 4.8 4 7.7 9.5 8.8 16.8.1.8.2 1.8.4 3.2l-14.2 3.6c0-.6-.1-1.6-.3-2.8-.4-3.9-1.9-7.7-4.3-10.9-2.2-2.7-5.5-4.1-9.7-4.1-3.4 0-6.1 1-7.9 2.9-1.9 1.9-2.8 4.6-2.8 8 0 5.6 2.4 10.3 7.1 14.1l17.8 14.2c9.5 7.7 14.3 16.8 14.3 27.5 0 7.3-2.3 13-6.8 17.1s-10.5 6.3-18.1 6.3z" fill="#3a3a3a"/><path d="M847.2 298.3c31.1 58.6 47.3 123.9 47.1 190.2 0 108.4-42.2 210.3-118.9 287s-178.6 118.8-287 118.8-210.3-42.2-287-118.9S82.7 596.9 82.7 488.5s42.2-210.3 118.9-287 178.6-118.8 287-118.8 210.3 42.2 287 118.9c14.8 14.8 28.5 30.8 40.9 47.7l42-48.4C772.6 90.8 638.8 20 488.5 20 229.7 20 20 229.7 20 488.5S229.7 957 488.5 957 957 747.3 957 488.5c.1-84.7-22.8-167.7-66.3-240.4l-43.5 50.2z" fill="#21850f"/></svg>