<svg id="Layer_1" height="512" viewBox="0 0 512 512" width="512" xmlns="http://www.w3.org/2000/svg"><g><g><g><g><path d="m496 352h-288v-168c0-13.255 10.745-24 24-24h240c13.255 0 24 10.745 24 24z" fill="#463c4b"/></g></g><g><g><path d="m464 352h-256v-168c0-13.255 10.745-24 24-24h208c13.255 0 24 10.745 24 24z" fill="#555a6e"/></g></g><g><g><path d="m472 376h-240c-13.255 0-24-10.745-24-24h288c0 13.255-10.745 24-24 24z" fill="#a5c3dc"/></g></g><g><g><path d="m440 376h-208c-13.255 0-24-10.745-24-24h256c0 13.255-10.745 24-24 24z" fill="#d7e6f0"/></g></g><g><g><path d="m320 376h64v24h-64z" fill="#a5c3dc"/></g></g><g><g><path d="m416 416h-128c0-8.837 7.163-16 16-16h96c8.837 0 16 7.163 16 16z" fill="#d7e6f0"/></g></g></g><g><g><g><path d="m376 272v-48c0-17.673-14.327-32-32-32h-16c-17.673 0-32 14.327-32 32v48c-4.418 0-8 3.582-8 8s3.582 8 8 8h80c4.418 0 8-3.582 8-8s-3.582-8-8-8z" fill="#faa019"/></g></g><g><g><path d="m344 288h-16c-13.255 0-24-10.745-24-24v-40h64v40c0 13.255-10.745 24-24 24z" fill="#fab991"/></g></g><g><g><path d="m304 264v-24c-4.418 0-8 3.582-8 8v8c0 4.418 3.582 8 8 8z" fill="#f0915a"/></g></g><g><g><path d="m368 264c4.418 0 8-3.582 8-8v-8c0-4.418-3.582-8-8-8z" fill="#f0915a"/></g></g><g><g><circle cx="322.667" cy="242.667" fill="#463c4b" r="5.333"/></g></g><g><g><circle cx="349.333" cy="242.667" fill="#463c4b" r="5.333"/></g></g><g><g><path d="m338.667 272h-5.333c-4.418 0-8-3.582-8-8h21.333c0 4.418-3.582 8-8 8z" fill="#463c4b"/></g></g><g><g><path d="m360 304h-48c-17.673 0-32 14.327-32 32v16h112v-16c0-17.673-14.327-32-32-32z" fill="#ffd205"/></g></g></g><g><g><g><path d="m184 304h-40v24h-88v-136c0-35.346 28.654-64 64-64h32c35.346 0 64 28.654 64 64v80c0 17.673-14.327 32-32 32z" fill="#f0915a"/></g></g><g><g><path d="m184 304h-24c-8.837 0-16-7.163-16-16v-160h8c35.346 0 64 28.654 64 64v80c0 17.673-14.327 32-32 32z" fill="#fab991"/></g></g><g><g><path d="m176 128h-64c-35.346 0-64 28.654-64 64v128c0 4.418 3.582 8 8 8h104c4.418 0 8-3.582 8-8v-104c0-4.418 3.582-8 8-8s8-3.582 8-8 3.582-8 8-8h24c4.418 0 8-3.582 8-8v-8c0-26.51-21.49-48-48-48z" fill="#463c4b"/></g></g><g><g><path d="m16 448h200v-88c0-17.673-14.327-32-32-32h-136c-17.673 0-32 14.327-32 32z" fill="#ffd205"/></g></g><g><g><path d="m152 448h64v-88c0-17.673-14.327-32-32-32-17.673 0-32 14.327-32 32z" fill="#faa019"/></g></g></g><g><g><path d="m480 416h-264v32h264c8.837 0 16-7.163 16-16 0-8.837-7.163-16-16-16z" fill="#555a6e"/></g></g><g><g><path d="m480 416h-80c-8.837 0-16 7.163-16 16 0 8.837 7.163 16 16 16h80c8.837 0 16-7.163 16-16 0-8.837-7.163-16-16-16z" fill="#463c4b"/></g></g><g><g><path d="m320 304h32v48h-32z" fill="#9b5faa"/></g></g><g><g><path d="m328 288h16v16h-16z" fill="#f0915a"/></g></g><g><g><g><path d="m192 32v124.686c0 6.248 5.065 11.314 11.314 11.314h32c3.001 0 5.878-1.192 8-3.314l20.686-20.686h72c8.837 0 16-7.163 16-16v-96c0-8.837-7.163-16-16-16h-128c-8.837 0-16 7.163-16 16z" fill="#643773"/></g></g><g><g><path d="m192 32v124.686c0 6.248 5.065 11.314 11.314 11.314 3.001 0 5.878-1.192 8-3.314l20.686-20.686h72c8.837 0 16-7.163 16-16v-96c0-8.837-7.163-16-16-16h-96c-8.837 0-16 7.163-16 16z" fill="#9b5faa"/></g></g></g><g><g><g><path d="m256 104c-4.418 0-8-3.582-8-8v-16c0-4.418 3.582-8 8-8 6.617 0 12-5.383 12-12s-5.383-12-12-12-12 5.383-12 12c0 4.418-3.582 8-8 8s-8-3.582-8-8c0-15.439 12.561-28 28-28s28 12.561 28 28c0 12.66-8.446 23.385-20 26.836v9.164c0 4.418-3.582 8-8 8z" fill="#d7e6f0"/></g></g><g><g><circle cx="256" cy="120" fill="#d7e6f0" r="8"/></g></g></g></g></svg>