<svg id="Layer_1" height="512" viewBox="0 0 512 512" width="512" xmlns="http://www.w3.org/2000/svg"><g><g><g><path d="m176 192v-112c0-17.673-14.327-32-32-32h-24c-4.418 0-8 3.582-8 8s3.582 8 8 8h4c2.209 0 4 1.791 4 4s-1.791 4-4 4h-4c-4.418 0-8 3.582-8 8s3.582 8 8 8h4c2.209 0 4 1.791 4 4s-1.791 4-4 4h-4c-4.418 0-8 3.582-8 8s3.582 8 8 8h8v80c0 17.673 14.327 32 32 32h48c-17.673 0-32-14.327-32-32z" fill="#643773"/></g></g><g><g><path d="m336 192v-40c0-4.418-3.582-8-8-8h-64c-13.255 0-24-10.745-24-24 0-13.255 10.745-24 24-24h64c4.418 0 8-3.582 8-8v-8c0-35.346-28.654-64-64-64-35.346 0-64 28.654-64 64v112c0 17.673-14.327 32-32 32h192c-17.673 0-32-14.327-32-32z" fill="#643773"/></g></g><g><g><path d="m420 88h4c4.418 0 8-3.582 8-8s-3.582-8-8-8h-4c-2.209 0-4-1.791-4-4s1.791-4 4-4h4c4.418 0 8-3.582 8-8s-3.582-8-8-8h-24c-17.673 0-32 14.327-32 32v112c0 17.673-14.327 32-32 32h48c17.673 0 32-14.327 32-32v-80h8c4.418 0 8-3.582 8-8s-3.582-8-8-8h-4c-2.209 0-4-1.791-4-4s1.791-4 4-4z" fill="#643773"/></g></g><g><g><path d="m272 104c-1.666 0-3.222-.833-4.146-2.219l-3.854-5.781h16l-3.854 5.781c-.924 1.386-2.48 2.219-4.146 2.219z" fill="#9b5faa"/></g></g><g><g><path d="m288 104c-1.666 0-3.222-.833-4.146-2.219l-3.854-5.781h16l-3.854 5.781c-.924 1.386-2.48 2.219-4.146 2.219z" fill="#9b5faa"/></g></g><g><g><path d="m304 104c-1.666 0-3.222-.833-4.146-2.219l-3.854-5.781h16l-3.854 5.781c-.924 1.386-2.48 2.219-4.146 2.219z" fill="#9b5faa"/></g></g><g><g><path d="m320 104c-1.666 0-3.222-.833-4.146-2.219l-3.854-5.781h16l-3.854 5.781c-.924 1.386-2.48 2.219-4.146 2.219z" fill="#9b5faa"/></g></g><g><g><path d="m272 136c-1.666 0-3.222.833-4.146 2.219l-3.854 5.781h16l-3.854-5.781c-.924-1.386-2.48-2.219-4.146-2.219z" fill="#9b5faa"/></g></g><g><g><path d="m288 136c-1.666 0-3.222.833-4.146 2.219l-3.854 5.781h16l-3.854-5.781c-.924-1.386-2.48-2.219-4.146-2.219z" fill="#9b5faa"/></g></g><g><g><path d="m304 136c-1.666 0-3.222.833-4.146 2.219l-3.854 5.781h16l-3.854-5.781c-.924-1.386-2.48-2.219-4.146-2.219z" fill="#9b5faa"/></g></g><g><g><path d="m320 136c-1.666 0-3.222.833-4.146 2.219l-3.854 5.781h16l-3.854-5.781c-.924-1.386-2.48-2.219-4.146-2.219z" fill="#9b5faa"/></g></g><g><g><path d="m256 64c0 4.418 3.582 8 8 8s8-3.582 8-8l-8-8c-4.418 0-8 3.582-8 8z" fill="#ffd205"/></g></g><g><g><path d="m312 56-8 8c0 4.418 3.582 8 8 8s8-3.582 8-8-3.582-8-8-8z" fill="#ffd205"/></g></g><g><g><g><path d="m432 208h-304v288h160v-48h96c35.346 0 64-28.654 64-64v-160c0-8.836-7.163-16-16-16z" fill="#fab991"/></g></g><g><g><path d="m376 376h16c13.255 0 24 10.745 24 24h-64c0-13.255 10.745-24 24-24z" fill="#463c4b"/></g></g><g><g><path d="m112 208c-8.837 0-16 7.164-16 16v160c0 17.673 14.327 32 32 32h80c17.673 0 32-14.327 32-32v-80c26.51 0 48-21.49 48-48v-48z" fill="#463c4b"/></g></g><g><g><path d="m240 256c-26.51 0-48 21.49-48 48s21.49 48 48 48z" fill="#f0915a"/></g></g><g><g><path d="m288 496h-160c0-26.51 21.49-48 48-48h112z" fill="#f0915a"/></g></g><g><g><path d="m400 352c-13.255 0-24-10.745-24-24v-56c26.51 0 48 21.49 48 48v8c0 13.255-10.745 24-24 24z" fill="#f0915a"/></g></g><g><g><path d="m432 256c0 8.837-7.163 16-16 16s-16-7.163-16-16 7.163-16 16-16z" fill="#463c4b"/></g></g><g><g><path d="m352 256c0 8.837-7.163 16-16 16s-16-7.163-16-16l16-16c8.837 0 16 7.163 16 16z" fill="#463c4b"/></g></g></g></g></svg>