<svg id="Layer_1" height="512" viewBox="0 0 512 512" width="512" xmlns="http://www.w3.org/2000/svg"><g><g><g><g><path d="m360 104c0-49.018-40.078-88.675-89.253-87.991-48.703.677-87.879 41.429-86.722 90.123.665 27.98 14.391 52.727 35.314 68.379 8.016 5.995 12.661 15.479 12.661 25.489h80c0-10.013 4.65-19.497 12.667-25.495 21.449-16.048 35.333-41.655 35.333-70.505z" fill="#faa019"/></g></g><g><g><path d="m312 200h-80v32c0 4.418 3.582 8 8 8h64c4.418 0 8-3.582 8-8z" fill="#555a6e"/></g></g><g><g><path d="m312 200h-40v40h32c4.418 0 8-3.582 8-8z" fill="#463c4b"/></g></g><g><g><path d="m282.947 256h-21.895c-8.837 0-16-7.163-16-16h53.895c0 8.837-7.163 16-16 16z" fill="#463c4b"/></g></g></g><g><g><g><path d="m432 224h-304v272h160v-48h96c35.346 0 64-28.654 64-64v-144c0-8.837-7.164-16-16-16z" fill="#fab991"/></g></g><g><g><path d="m384 399.979c-7.388 0-14.775-3.441-21.657-10.322-3.124-3.125-3.124-8.189 0-11.314 3.125-3.123 8.189-3.123 11.314 0 7.539 7.541 13.146 7.541 20.686 0 3.125-3.123 8.189-3.123 11.314 0 3.124 3.125 3.124 8.189 0 11.314-6.882 6.881-14.269 10.322-21.657 10.322z" fill="#463c4b"/></g></g><g><g><path d="m336 271.979c-7.388 0-14.775-3.441-21.657-10.322-3.124-3.125-3.124-8.189 0-11.314 3.125-3.123 8.189-3.123 11.314 0 7.539 7.541 13.146 7.541 20.686 0 3.125-3.123 8.189-3.123 11.314 0 3.124 3.125 3.124 8.189 0 11.314-6.882 6.881-14.269 10.322-21.657 10.322z" fill="#463c4b"/></g></g><g><g><path d="m416 271.979c-7.388 0-14.775-3.441-21.657-10.322-3.124-3.125-3.124-8.189 0-11.314 3.125-3.123 8.189-3.123 11.314 0 7.539 7.541 13.146 7.541 20.686 0 3.125-3.123 8.189-3.123 11.314 0 3.124 3.125 3.124 8.189 0 11.314-6.882 6.881-14.269 10.322-21.657 10.322z" fill="#463c4b"/></g></g><g><g><path d="m112 224c-8.836 0-16 7.163-16 16v144c0 17.673 14.327 32 32 32h80c17.673 0 32-14.327 32-32v-80c26.51 0 48-21.49 48-48v-32z" fill="#463c4b"/></g></g><g><g><path d="m240 256c-26.51 0-48 21.49-48 48s21.49 48 48 48z" fill="#f0915a"/></g></g><g><g><path d="m288 496h-160c0-26.51 21.49-48 48-48h112z" fill="#f0915a"/></g></g><g><g><path d="m400 352c-13.255 0-24-10.745-24-24v-56c26.51 0 48 21.49 48 48v8c0 13.255-10.745 24-24 24z" fill="#f0915a"/></g></g></g><g><g><path d="m312 88h-24v-24c0-4.418-3.582-8-8-8h-16c-4.418 0-8 3.582-8 8v24h-24c-4.418 0-8 3.582-8 8v16c0 4.418 3.582 8 8 8h24v24c0 4.418 3.582 8 8 8h16c4.418 0 8-3.582 8-8v-24h24c4.418 0 8-3.582 8-8v-16c0-4.418-3.582-8-8-8z" fill="#d7e6f0"/></g></g><g><g><g><circle cx="400" cy="152" fill="#b97dc8" r="56"/></g></g><g><g><path d="m400 96v40c0 8.837-7.163 16-16 16h-40c0 30.928 25.072 56 56 56 30.928 0 56-25.072 56-56 0-30.928-25.072-56-56-56z" fill="#9b5faa"/></g></g><g><g><circle cx="384" cy="136" fill="#463c4b" r="8"/></g></g><g><g><circle cx="416" cy="136" fill="#463c4b" r="8"/></g></g><g><g><path d="m400 188c-12.803 0-24.747-6.896-31.17-17.997-1.106-1.912-.453-4.358 1.459-5.465 1.909-1.108 4.358-.454 5.465 1.459 4.998 8.637 14.289 14.003 24.246 14.003s19.248-5.366 24.246-14.003c1.105-1.912 3.552-2.567 5.465-1.459 1.912 1.106 2.565 3.553 1.459 5.465-6.423 11.101-18.367 17.997-31.17 17.997z" fill="#463c4b"/></g></g><g><g><path d="m352 156c-2.209 0-4-1.791-4-4 0-28.673 23.327-52 52-52 2.209 0 4 1.791 4 4s-1.791 4-4 4c-24.262 0-44 19.738-44 44 0 2.209-1.791 4-4 4z" fill="#d79be6"/></g></g></g><g><g><g><circle cx="144" cy="152" fill="#b97dc8" r="56"/></g></g><g><g><path d="m144 96v40c0 8.837-7.163 16-16 16h-40c0 30.928 25.072 56 56 56 30.928 0 56-25.072 56-56 0-30.928-25.072-56-56-56z" fill="#9b5faa"/></g></g><g><g><circle cx="128" cy="136" fill="#463c4b" r="8"/></g></g><g><g><circle cx="160" cy="136" fill="#463c4b" r="8"/></g></g><g><g><path d="m144 188c-12.803 0-24.747-6.896-31.17-17.997-1.106-1.912-.453-4.358 1.459-5.465 1.91-1.108 4.359-.454 5.465 1.459 4.998 8.637 14.289 14.003 24.246 14.003s19.248-5.366 24.246-14.003c1.106-1.912 3.553-2.567 5.465-1.459 1.912 1.106 2.565 3.553 1.459 5.465-6.423 11.101-18.367 17.997-31.17 17.997z" fill="#463c4b"/></g></g><g><g><path d="m96 156c-2.209 0-4-1.791-4-4 0-28.673 23.327-52 52-52 2.209 0 4 1.791 4 4s-1.791 4-4 4c-24.262 0-44 19.738-44 44 0 2.209-1.791 4-4 4z" fill="#d79be6"/></g></g></g></g></svg>