<svg id="Layer_1" height="512" viewBox="0 0 512 512" width="512" xmlns="http://www.w3.org/2000/svg"><g><g><g><g><circle cx="320" cy="128" fill="#faa019" r="112"/></g></g><path d="m320 16c-61.856 0-112 50.144-112 112 0 4.418 3.582 8 8 8s8-3.582 8-8c0-53.019 42.981-96 96-96s96 42.981 96 96c0 4.418 3.582 8 8 8s8-3.582 8-8c0-61.856-50.144-112-112-112z" fill="#ffd205"/><g><g><circle cx="320" cy="128" fill="#9b5faa" r="72"/></g></g><g><g><path d="m373.333 168c0-13.255-10.745-24-24-24h-58.667c-13.255 0-24 10.745-24 24v8.368c13.173 14.516 32.188 23.632 53.334 23.632s40.161-9.116 53.333-23.632z" fill="#d7e6f0"/></g></g><g><g><path d="m320 152c-4.418 0-8-3.582-8-8h16c0 4.418-3.582 8-8 8z" fill="#555a6e"/></g></g><g><g><path d="m331.708 185.95-8.635 10.362c-1.599 1.919-4.547 1.919-6.146 0l-8.635-10.362c-1.022-1.226-1.397-2.866-1.01-4.414l6.091-24.363c.76-3.041 3.492-5.174 6.627-5.174 3.134 0 5.867 2.133 6.627 5.174l6.091 24.363c.387 1.549.011 3.189-1.01 4.414z" fill="#555a6e"/></g></g><g><g><circle cx="320" cy="104" fill="#fab991" r="32"/></g></g></g><g><g><g><path d="m224 208v160 32h112v-32h64c26.51 0 48-21.49 48-48v-104c0-4.418-3.582-8-8-8z" fill="#fab991"/></g></g><g><g><path d="m216 208c-4.418 0-8 3.582-8 8v104c0 17.673 14.327 32 32 32h32c17.673 0 32-14.327 32-32v-80c17.673 0 32-14.327 32-32z" fill="#463c4b"/></g></g><g><g><path d="m304 240v80c-22.091 0-40-17.909-40-40s17.909-40 40-40z" fill="#f0915a"/></g></g><g><g><path d="m410.667 304c-8.837 0-16-7.163-16-16v-34.667c17.673 0 32 14.327 32 32v2.667c0 8.837-7.164 16-16 16z" fill="#f0915a"/></g></g><g><g><path d="m424 320h-32c0 8.837 7.163 16 16 16 8.837 0 16-7.163 16-16z" fill="#463c4b"/></g></g><g><g><circle cx="374.667" cy="240" fill="#463c4b" r="12"/></g></g><g><g><circle cx="414.667" cy="240" fill="#463c4b" r="12"/></g></g><g><g><path d="m400 400h-176c-26.51 0-48 21.49-48 48v48h272v-48c0-26.51-21.49-48-48-48z" fill="#463c4b"/></g></g><g><g><path d="m224 400c-26.51 0-48 21.49-48 48v48h96v-48c0-26.51-21.49-48-48-48z" fill="#555a6e"/></g></g><g><g><path d="m336 368h-80c-17.673 0-32 14.327-32 32h112z" fill="#f0915a"/></g></g><g><g><path d="m288 400c26.51 0 48 21.49 48 48v48h48v-48c0-26.51-21.49-48-48-48z" fill="#a5c3dc"/></g></g></g><g><g><g><circle cx="152" cy="480" fill="#d7e6f0" r="16"/></g></g><g><g><path d="m152 464v32c8.837 0 16-7.163 16-16s-7.163-16-16-16z" fill="#a5c3dc"/></g></g><g><g><path d="m168 368h-32c-61.856 0-112-50.144-112-112 0-61.856 50.144-112 112-112h32c61.856 0 112 50.144 112 112 0 61.856-50.144 112-112 112z" fill="#643773"/></g></g><g><g><circle cx="136" cy="256" fill="#9b5faa" r="112"/></g></g><g><g><circle cx="136" cy="256" fill="#d7e6f0" r="80"/></g></g><g><g><path d="m136 368h32v16h-32z" fill="#d7e6f0"/></g></g><g><g><path d="m136 368v8h8c4.418 0 8 3.582 8 8h16v-16z" fill="#a5c3dc"/></g></g><g><g><path d="m168 480h-32c-4.418 0-8-3.582-8-8v-80c0-4.418 3.582-8 8-8h32c4.418 0 8 3.582 8 8v80c0 4.418-3.582 8-8 8z" fill="#9b5faa"/></g></g><g><g><path d="m168 480h-16v-96h16c4.418 0 8 3.582 8 8v80c0 4.418-3.582 8-8 8z" fill="#643773"/></g></g></g><path d="m184 216c-13.233 0-24 10.766-24 24v16c0 4.411-3.589 8-8 8h-8v-32c4.418 0 8-3.582 8-8s-3.582-8-8-8h-16c-4.418 0-8 3.582-8 8s3.582 8 8 8v32h-8c-4.411 0-8-3.589-8-8v-16c0-13.234-10.767-24-24-24-4.418 0-8 3.582-8 8s3.582 8 8 8c4.411 0 8 3.589 8 8v16c0 13.234 10.767 24 24 24h8v24c-4.418 0-8 3.582-8 8s3.582 8 8 8h16c4.418 0 8-3.582 8-8s-3.582-8-8-8v-24h8c13.233 0 24-10.766 24-24v-16c0-4.411 3.589-8 8-8 4.418 0 8-3.582 8-8s-3.582-8-8-8z" fill="#faa019"/></g></svg>