<svg id="Layer_1" height="512" viewBox="0 0 512 512" width="512" xmlns="http://www.w3.org/2000/svg"><g><g><g><g><path d="m432 208h-304v288h160v-48h96c35.346 0 64-28.654 64-64v-160c0-8.836-7.163-16-16-16z" fill="#fab991"/></g></g><g><g><path d="m448 256h-160v-48h144c8.837 0 16 7.163 16 16z" fill="#f0915a"/></g></g><g><g><path d="m400 400c-2.047 0-4.095-.781-5.657-2.343-7.54-7.54-13.146-7.54-20.687 0-3.124 3.124-8.189 3.124-11.313 0-3.125-3.124-3.125-8.189 0-11.313 6.863-6.864 14.15-10.344 21.657-10.344s14.794 3.48 21.657 10.343c3.125 3.124 3.125 8.189 0 11.313-1.562 1.563-3.61 2.344-5.657 2.344z" fill="#463c4b"/></g></g><g><g><path d="m112 208c-8.837 0-16 7.164-16 16v160c0 17.673 14.327 32 32 32h80c17.673 0 32-14.327 32-32v-80c26.51 0 48-21.49 48-48v-48z" fill="#463c4b"/></g></g><g><g><path d="m240 256c-26.51 0-48 21.49-48 48s21.49 48 48 48z" fill="#f0915a"/></g></g><g><g><path d="m288 496h-160c0-26.51 21.49-48 48-48h112z" fill="#f0915a"/></g></g><g><g><path d="m400 352c-13.255 0-24-10.745-24-24v-56c26.51 0 48 21.49 48 48v8c0 13.255-10.745 24-24 24z" fill="#f0915a"/></g></g><g><g><path d="m432 256c0 8.837-7.163 16-16 16s-16-7.163-16-16 7.163-16 16-16z" fill="#463c4b"/></g></g><g><g><path d="m352 256c0 8.837-7.163 16-16 16s-16-7.163-16-16l16-16c8.837 0 16 7.163 16 16z" fill="#463c4b"/></g></g></g><g><g><g><path d="m384 112c-1.793 0-3.548.155-5.26.438-6.466-18.868-24.346-32.438-45.407-32.438-2.326 0-4.611.175-6.848.494-7.222-36.759-39.609-64.494-78.485-64.494-44.183 0-80 35.817-80 80-22.091 0-40 17.909-40 40s17.909 40 40 40h216c17.673 0 32-14.327 32-32s-14.327-32-32-32z" fill="#9b5faa"/></g></g><g><g><g><path d="m384 112c-1.793 0-3.548.155-5.26.438-.025-.072-.053-.143-.078-.215-.12 17.57-14.396 31.777-31.994 31.777h-216c-.628 0-1.252-.019-1.874-.047 3.687 18.281 19.838 32.047 39.206 32.047h216c17.673 0 32-14.327 32-32s-14.327-32-32-32z" fill="#643773"/></g></g></g></g><path d="m294.805 147.794c-1.457-2.358-4.033-3.794-6.805-3.794h-36.9l12.49-37.47c1.328-3.983-.649-8.314-4.528-9.921s-8.34.058-10.217 3.813l-32 64c-1.24 2.48-1.107 5.425.35 7.784 1.458 2.358 4.033 3.794 6.805 3.794h36.9l-12.49 37.47c-1.328 3.983.649 8.314 4.528 9.921.999.414 2.036.61 3.058.61 2.946 0 5.765-1.636 7.159-4.424l32-64c1.241-2.479 1.108-5.424-.35-7.783z" fill="#fabe19"/><g><g><path d="m127.994 216.002c-1.202 0-2.423-.272-3.571-.847-3.952-1.976-5.554-6.781-3.578-10.733l8-16c1.975-3.952 6.781-5.553 10.733-3.578s5.554 6.781 3.578 10.733l-8 16c-1.402 2.804-4.228 4.425-7.162 4.425z" fill="#a5c3dc"/></g></g><g><g><path d="m191.994 216.002c-1.202 0-2.423-.272-3.571-.847-3.952-1.976-5.554-6.781-3.578-10.733l8-16c1.975-3.952 6.78-5.553 10.733-3.578 3.952 1.976 5.554 6.781 3.578 10.733l-8 16c-1.402 2.804-4.228 4.425-7.162 4.425z" fill="#a5c3dc"/></g></g><g><g><path d="m319.994 216.002c-1.202 0-2.423-.272-3.571-.847-3.952-1.976-5.554-6.781-3.578-10.733l8-16c1.975-3.952 6.78-5.553 10.733-3.578 3.952 1.976 5.554 6.781 3.578 10.733l-8 16c-1.402 2.804-4.228 4.425-7.162 4.425z" fill="#a5c3dc"/></g></g><g><g><path d="m383.994 216.002c-1.202 0-2.423-.272-3.571-.847-3.952-1.976-5.554-6.781-3.578-10.733l8-16c1.975-3.952 6.782-5.553 10.733-3.578 3.952 1.976 5.554 6.781 3.578 10.733l-8 16c-1.402 2.804-4.228 4.425-7.162 4.425z" fill="#a5c3dc"/></g></g></g></svg>