<svg id="Layer_1" height="512" viewBox="0 0 512 512" width="512" xmlns="http://www.w3.org/2000/svg"><g><g><g><path d="m152 216c-4.418 0-8-3.582-8-8v-82.667c0-4.418 3.582-8 8-8s8 3.582 8 8v82.667c0 4.418-3.582 8-8 8z" fill="#f58caa"/></g></g><g><g><path d="m272 216c-4.418 0-8-3.582-8-8v-128c0-4.418 3.582-8 8-8s8 3.582 8 8v128c0 4.418-3.582 8-8 8z" fill="#faa019"/></g></g><g><g><path d="m392 216c-4.418 0-8-3.582-8-8v-80c0-4.418 3.582-8 8-8s8 3.582 8 8v80c0 4.418-3.582 8-8 8z" fill="#9b5faa"/></g></g><g><g><g><circle cx="272" cy="72" fill="#ffd205" r="56"/></g></g><g><g><path d="m272 16v40c0 8.837-7.163 16-16 16h-40c0 30.928 25.072 56 56 56 30.928 0 56-25.072 56-56 0-30.928-25.072-56-56-56z" fill="#faa019"/></g></g><g><g><circle cx="256" cy="56" fill="#463c4b" r="8"/></g></g><g><g><circle cx="288" cy="56" fill="#463c4b" r="8"/></g></g><g><g><path d="m299.712 108c-1.381 0-2.725-.716-3.466-1.997-4.998-8.637-14.289-14.003-24.246-14.003s-19.248 5.366-24.246 14.003c-1.106 1.912-3.552 2.565-5.465 1.459-1.912-1.106-2.565-3.554-1.459-5.466 6.423-11.1 18.367-17.996 31.17-17.996s24.747 6.896 31.17 17.997c1.106 1.912.453 4.359-1.459 5.466-.63.364-1.319.537-1.999.537z" fill="#463c4b"/></g></g><g><g><path d="m224 76c-2.209 0-4-1.791-4-4 0-28.673 23.327-52 52-52 2.209 0 4 1.791 4 4s-1.791 4-4 4c-24.262 0-44 19.738-44 44 0 2.209-1.791 4-4 4z" fill="#ffff50"/></g></g></g><g><g><circle cx="152" cy="120" fill="#fac3c8" r="56"/></g></g><g><g><path d="m152 64v40c0 8.837-7.163 16-16 16h-40c0 30.928 25.072 56 56 56 30.928 0 56-25.072 56-56 0-30.928-25.072-56-56-56z" fill="#f58caa"/></g></g><path d="m146.219 100.672-16-10.667c-1.836-1.225-4.321-.729-5.547 1.109s-.729 4.322 1.109 5.547l3.822 2.548c-1.002 1.336-1.604 2.991-1.604 4.79 0 4.418 3.582 8 8 8 3.015 0 5.639-1.67 7.002-4.134.328.084.661.134.994.134 1.293 0 2.562-.625 3.332-1.782 1.227-1.836.73-4.32-1.108-5.545z" fill="#463c4b"/><path d="m179.328 91.115c-1.225-1.838-3.709-2.336-5.547-1.109l-16 10.667c-1.838 1.225-2.335 3.709-1.109 5.547.771 1.156 2.039 1.782 3.332 1.782.333 0 .666-.05.994-.134 1.363 2.462 3.987 4.132 7.002 4.132 4.418 0 8-3.582 8-8 0-1.799-.601-3.454-1.604-4.79l3.822-2.548c1.839-1.225 2.336-3.709 1.11-5.547z" fill="#463c4b"/><g><g><path d="m179.712 156c-1.381 0-2.725-.716-3.466-1.997-4.998-8.637-14.289-14.003-24.246-14.003s-19.248 5.366-24.246 14.003c-1.106 1.912-3.552 2.564-5.465 1.459-1.912-1.106-2.565-3.554-1.459-5.466 6.423-11.1 18.367-17.996 31.17-17.996s24.747 6.896 31.17 17.997c1.106 1.912.453 4.359-1.459 5.466-.63.364-1.319.537-1.999.537z" fill="#463c4b"/></g></g><g><g><path d="m104 124c-2.209 0-4-1.791-4-4 0-28.673 23.327-52 52-52 2.209 0 4 1.791 4 4s-1.791 4-4 4c-24.262 0-44 19.738-44 44 0 2.209-1.791 4-4 4z" fill="#ffe1e6"/></g></g><g><g><g><circle cx="392" cy="120" fill="#b97dc8" r="56"/></g></g><g><g><path d="m392 64v40c0 8.837-7.163 16-16 16h-40c0 30.928 25.072 56 56 56 30.928 0 56-25.072 56-56 0-30.928-25.072-56-56-56z" fill="#9b5faa"/></g></g><g><g><path d="m419.712 156c-1.381 0-2.725-.716-3.466-1.997-4.998-8.637-14.289-14.003-24.246-14.003s-19.248 5.366-24.246 14.003c-1.106 1.912-3.552 2.564-5.465 1.459-1.912-1.106-2.565-3.554-1.459-5.466 6.423-11.1 18.367-17.996 31.17-17.996s24.747 6.896 31.17 17.997c1.106 1.912.453 4.359-1.459 5.466-.63.364-1.319.537-1.999.537z" fill="#463c4b"/></g></g><g><g><path d="m344 124c-2.209 0-4-1.791-4-4 0-28.673 23.327-52 52-52 2.209 0 4 1.791 4 4s-1.791 4-4 4c-24.262 0-44 19.738-44 44 0 2.209-1.791 4-4 4z" fill="#d79be6"/></g></g><g fill="#463c4b"><path d="m378.99 104 5.171-5.171c1.563-1.563 1.563-4.095 0-5.657-1.561-1.562-4.096-1.562-5.656 0l-5.172 5.172-5.172-5.172c-1.561-1.562-4.096-1.562-5.656 0-1.563 1.563-1.563 4.095 0 5.657l5.171 5.171-5.171 5.171c-1.563 1.563-1.563 4.095 0 5.657.78.781 1.805 1.171 2.828 1.171s2.048-.391 2.828-1.171l5.172-5.172 5.172 5.172c.78.781 1.805 1.171 2.828 1.171s2.048-.391 2.828-1.171c1.563-1.563 1.563-4.095 0-5.657z"/><path d="m416.324 104 5.171-5.171c1.563-1.563 1.563-4.095 0-5.657-1.561-1.562-4.096-1.562-5.656 0l-5.172 5.172-5.172-5.172c-1.561-1.562-4.096-1.562-5.656 0-1.563 1.563-1.563 4.095 0 5.657l5.171 5.171-5.171 5.171c-1.563 1.563-1.563 4.095 0 5.657.78.781 1.805 1.171 2.828 1.171s2.048-.391 2.828-1.171l5.172-5.172 5.172 5.172c.78.781 1.805 1.171 2.828 1.171s2.048-.391 2.828-1.171c1.563-1.563 1.563-4.095 0-5.657z"/></g></g><g><g><g><path d="m432 208h-304v288h160v-48h96c35.346 0 64-28.654 64-64v-160c0-8.836-7.164-16-16-16z" fill="#fab991"/></g></g><g><g><path d="m332.77 272.393c-5.43 0-11.242-1.713-17.26-5.187-3.826-2.209-5.138-7.102-2.929-10.928 2.21-3.827 7.103-5.138 10.929-2.928 9.235 5.332 14.651 3.879 19.982-5.354 2.208-3.827 7.102-5.138 10.928-2.928 3.826 2.209 5.138 7.102 2.928 10.928-6.258 10.838-14.798 16.397-24.578 16.397z" fill="#463c4b"/></g></g><g><g><path d="m419.23 272.393c-9.782 0-18.32-5.558-24.578-16.397-2.21-3.826-.898-8.719 2.928-10.928 3.828-2.209 8.72-.897 10.928 2.928 5.331 9.233 10.745 10.686 19.982 5.354 3.828-2.211 8.719-.897 10.929 2.928 2.209 3.827.897 8.719-2.929 10.928-6.016 3.473-11.83 5.187-17.26 5.187z" fill="#463c4b"/></g></g><g><g><path d="m400 400c-2.048 0-4.095-.781-5.656-2.343-7.541-7.54-13.146-7.54-20.688 0-3.124 3.124-8.189 3.124-11.313 0s-3.124-8.189.001-11.314c13.762-13.762 29.551-13.762 43.313 0 3.125 3.125 3.125 8.189.001 11.314-1.563 1.562-3.61 2.343-5.658 2.343z" fill="#463c4b"/></g></g><g><g><path d="m112 208c-8.836 0-16 7.164-16 16v160c0 17.673 14.327 32 32 32h80c17.673 0 32-14.327 32-32v-80c26.51 0 48-21.49 48-48v-48z" fill="#463c4b"/></g></g><g><g><path d="m240 256c-26.51 0-48 21.49-48 48s21.49 48 48 48z" fill="#f0915a"/></g></g><g><g><path d="m288 496h-160c0-26.51 21.49-48 48-48h112z" fill="#f0915a"/></g></g><g><g><path d="m400 352c-13.255 0-24-10.745-24-24v-56c26.51 0 48 21.49 48 48v8c0 13.255-10.745 24-24 24z" fill="#f0915a"/></g></g></g></g></svg>